<svg xmlns="http://www.w3.org/2000/svg" width="28" height="28" viewBox="0 0 28 28">
  <path id="Icon_awesome-gas-pump" data-name="Icon awesome-gas-pump" d="M18.375,24.5H.875A.878.878,0,0,0,0,25.375v1.75A.878.878,0,0,0,.875,28h17.5a.878.878,0,0,0,.875-.875v-1.75A.878.878,0,0,0,18.375,24.5Zm8.6-18.632-4.43-4.43a.878.878,0,0,0-1.236,0l-.618.618a.878.878,0,0,0,0,1.236L22.75,5.354v3.4a3.057,3.057,0,0,0,2.625,3.019v8.794a1.313,1.313,0,0,1-2.625,0v-1.75A4.813,4.813,0,0,0,17.938,14H17.5V3.5A3.5,3.5,0,0,0,14,0H5.25a3.5,3.5,0,0,0-3.5,3.5V22.75H17.5V16.625h.438a2.187,2.187,0,0,1,2.188,2.188v1.52a4.1,4.1,0,0,0,3.527,4.151A3.948,3.948,0,0,0,28,20.562V8.345a3.506,3.506,0,0,0-1.028-2.477ZM14,10.5H5.25v-7H14Z" fill="#fff"/>
</svg>
