<svg xmlns="http://www.w3.org/2000/svg" width="254" height="36" viewBox="0 0 254 36">
  <g id="Group_542" data-name="Group 542" transform="translate(553 -263)">
    <g id="Asva_Logo-35" data-name="Asva Logo-35" transform="translate(-564.773 251.227)">
      <circle id="Ellipse_21" data-name="Ellipse 21" cx="18" cy="18" r="18" transform="translate(11.773 11.773)" fill="#ff0074"/>
      <path id="Path_9481" data-name="Path 9481" d="M120.223,83.538q0,.641-2.972,1.486.27,3.514.27,5.98,0,4.256-1.081,4.256a1.025,1.025,0,0,1-.913-.709,8.771,8.771,0,0,1-.546-2.466q-.237-3.242-.507-6.35-1.521.406-2.769.726t-3.784,1.03q-2.972,7.768-3.513,7.768a1.715,1.715,0,0,1-1.165-.655,2.011,2.011,0,0,1-.624-1.4,42.889,42.889,0,0,1,1.925-4.8h-.231a1.812,1.812,0,0,1-1.2-.439,1.375,1.375,0,0,1-.524-1.1q0-.655,3.345-1.74.539-1.217.878-2.2.777-1.924,2.162-5.269t1.757-4.273a3.611,3.611,0,0,1,1.3-1.591,3.076,3.076,0,0,1,1.807-.655q1.047,0,1.872,3.344a61.858,61.858,0,0,1,1.334,8.276,15.84,15.84,0,0,1,1.656-.1Q120.223,82.66,120.223,83.538Zm-11.044.709q2.4-.641,5.067-1.081-.609-5.777-1.183-8.682Q111.538,77.965,109.179,84.247Z" transform="translate(-82.056 -53.55)" fill="#fff"/>
    </g>
    <g id="Group_541" data-name="Group 541" transform="translate(-1210 -26.929)">
      <g id="asva_finance_logo_new-39" data-name="asva finance logo new-39" transform="translate(701 290.929)">
        <path id="Path_1610" data-name="Path 1610" d="M112.324,110.091q0,.852-3.935,1.964.359,4.64.359,7.9,0,5.621-1.424,5.621a1.352,1.352,0,0,1-1.2-.935,11.547,11.547,0,0,1-.718-3.257q-.313-4.285-.669-8.389-2.01.537-3.667.96t-5.006,1.358q-3.929,10.264-4.658,10.261a2.247,2.247,0,0,1-1.54-.87,2.655,2.655,0,0,1-.829-1.85,56.265,56.265,0,0,1,2.548-6.337h-.3a2.4,2.4,0,0,1-1.586-.568A1.809,1.809,0,0,1,89,114.487q0-.87,4.428-2.3.715-1.6,1.162-2.9,1.028-2.557,2.847-6.959t2.323-5.644a4.708,4.708,0,0,1,1.708-2.1,4.145,4.145,0,0,1,2.392-.87q1.384,0,2.48,4.416a80.932,80.932,0,0,1,1.765,10.929,21.254,21.254,0,0,1,2.19-.134Q112.324,108.931,112.324,110.091Zm-14.618.938a66.793,66.793,0,0,1,6.705-1.421q-.8-7.63-1.566-11.466Q100.835,102.731,97.706,111.028Z" transform="translate(-88.999 -93.72)" fill="#ff0074"/>
        <path id="Path_1611" data-name="Path 1611" d="M174.814,128.1a3.7,3.7,0,0,1,2.847,1.677A5.129,5.129,0,0,1,179,132.7c0,.507-.239.76-.715.76a3.113,3.113,0,0,1-1.52-.783,3.448,3.448,0,0,0-2.1-.783,8.349,8.349,0,0,0-3.374,1.253q-2.3,1.253-2.3,2.637,0,1.028,4.114,3.534a11.938,11.938,0,0,1,2.847,2.526,5.1,5.1,0,0,1,1.278,3.309q0,1.768-2.434,3.442a9.769,9.769,0,0,1-5.678,1.683,10.51,10.51,0,0,1-5.723-1.563q-2.483-1.566-2.48-2.953a1.344,1.344,0,0,1,.285-.914.928.928,0,0,1,.737-.336,2.574,2.574,0,0,1,1.25.569,8.489,8.489,0,0,0,5.031,1.743,8.7,8.7,0,0,0,3.776-.6,1.809,1.809,0,0,0,1.162-1.609,3.089,3.089,0,0,0-1.3-2.147,17.987,17.987,0,0,0-2.847-2.033,13.833,13.833,0,0,1-2.847-2.19,3.775,3.775,0,0,1-1.3-2.637q0-2.369,3.733-4.94T174.814,128.1Z" transform="translate(-140.435 -118.375)" fill="#ff0074"/>
        <path id="Path_1612" data-name="Path 1612" d="M241.078,128.1a2.372,2.372,0,0,1,1.475.569,1.577,1.577,0,0,1,.715,1.23q0,1.2-3.24,8.36t-4.6,9.633q-1.367,2.483-2.392,2.48a2.332,2.332,0,0,1-1.424-.854,5.552,5.552,0,0,1-1.25-1.834,55.983,55.983,0,0,1-2.591-9.077,47.819,47.819,0,0,1-1.387-9.163c0-.894.285-1.341.806-1.341a3.252,3.252,0,0,1,2.013.826,4.317,4.317,0,0,1,1.424,2.079q.134.718.359,3.576a40.008,40.008,0,0,0,2.144,10.865q1.207-2.594,3.084-7.355t3.064-7.377Q240.46,128.1,241.078,128.1Z" transform="translate(-187.348 -118.375)" fill="#ff0074"/>
        <path id="Path_1613" data-name="Path 1613" d="M295.17,130.154a5.094,5.094,0,0,1,.589,7,1.993,1.993,0,0,1,.53,1.165,27.174,27.174,0,0,1-.569,4.291q-.569,3.038-.669,3.986c-.077.626-.142,1.125-.2,1.5s-.134.737-.222,1.1c-.12.743-.39,1.116-.806,1.116-.535,0-.977-.47-1.318-1.409a12.181,12.181,0,0,1-.6-3.642q-3.972,5.051-7.369,5.051a6.109,6.109,0,0,1-4.046-1.765,4.964,4.964,0,0,1-1.993-3.645,15.653,15.653,0,0,1,1.968-6.637,26.2,26.2,0,0,1,5.094-7.042q3.132-3.084,5.9-3.084A4.815,4.815,0,0,1,295.17,130.154Zm-1.654,5.834q0-4.154-1.654-4.157-1.743,0-4.069,2.48a24.66,24.66,0,0,0-3.932,5.612,11.811,11.811,0,0,0-1.609,4.96,1.469,1.469,0,0,0,.624,1.23,2.4,2.4,0,0,0,1.478.47q2.1,0,4.738-2.847a15.567,15.567,0,0,0,3.665-6.908.931.931,0,0,1,.76-.8Z" transform="translate(-224.653 -118.396)" fill="#ff0074"/>
        <path id="Path_1614" data-name="Path 1614" d="M392.408,114.228h-.091q-.091.443-.871,3.566t-1.005,4.083c-.151.639-.285,1.154-.382,1.54s-.216.824-.336,1.316a10.745,10.745,0,0,1-.333,1.159c-.105.284-.2.568-.285.827-.179.506-.359.756-.538.756q-.569,0-1.52-1.27a3.907,3.907,0,0,1-.937-2.074c0-.534.854-4.262,2.563-11.153s2.6-11.494,2.659-13.784a1.683,1.683,0,0,1,.313-1.071q.444-.938,2.659-1.338a51.4,51.4,0,0,1,13.186.043q2.434.446,2.437,1.25,0,.537-.76.759c-.507.148-.954.261-1.341.335s-.894.148-1.52.222-1.207.134-1.743.179-1.23.111-2.079.2l-2.346.244c-.717.074-1.686.188-2.907.335s-2.01.239-2.369.267a1.373,1.373,0,0,1,.046.4,58.876,58.876,0,0,1-1.745,9.636,45.056,45.056,0,0,0,5.979-.134q3.2-.264,3.912-.267,1.708,0,1.708.713,0,1.387-3.867,2.322A35.947,35.947,0,0,1,392.408,114.228Z" transform="translate(-301.702 -95.623)" fill="#ff0074"/>
        <path id="Path_1615" data-name="Path 1615" d="M461.553,105.837a2.082,2.082,0,0,1,1.612,1.026,3.405,3.405,0,0,1,.76,2.006,37.558,37.558,0,0,1-1.3,5.868q-1.3,4.882-3.274,10.962-.76,2.233-1.922,2.231a1.379,1.379,0,0,1-1.073-.511,1.7,1.7,0,0,1-.447-1.159,9.923,9.923,0,0,1,.336-2.054q.333-1.4.982-3.745t1.028-3.816q.379-1.472.783-3.322t.649-2.989c.162-.759.35-1.523.569-2.3Q460.887,105.837,461.553,105.837Zm.225-6.337a2.52,2.52,0,0,1,.715-1.7,2.072,2.072,0,0,1,1.452-.8c.49,0,1.082.6,1.765,1.807a6.56,6.56,0,0,1,1.045,3.023,1.045,1.045,0,0,1-.4.8,1.26,1.26,0,0,1-.854.358,3.678,3.678,0,0,1-2.392-1.293A3.546,3.546,0,0,1,461.778,99.5Z" transform="translate(-351.657 -96.066)" fill="#ff0074"/>
        <path id="Path_1616" data-name="Path 1616" d="M496.407,131.224q2.708-3.553,4.428-3.553A4.331,4.331,0,0,1,504.1,129.5a5.936,5.936,0,0,1,1.54,3.887,26.876,26.876,0,0,1-1.475,7.87q-2.682,8.579-4.84,8.582-.985,0-.985-1.341a15.758,15.758,0,0,1,.962-3.821q.962-2.881,1.788-5.678a16.591,16.591,0,0,0,.826-4.2,3.958,3.958,0,0,0-.424-2.079c-.285-.447-.569-.672-.854-.672a1.68,1.68,0,0,0-.871.285,4.478,4.478,0,0,0-1.005.894q-.569.624-1.051,1.227c-.33.4-.737.977-1.23,1.723s-.9,1.378-1.23,1.9-.806,1.276-1.424,2.258-1.1,1.728-1.424,2.235-.76,1.193-1.3,2.056-.962,1.535-1.273,2.013-.666,1-1.051,1.563q-1.113,1.649-1.763,1.649c-.43,0-.931-.336-1.495-1.005a2.955,2.955,0,0,1-.854-1.765,6.238,6.238,0,0,1,.313-1.207q.854-2.591,1.876-6.415a36.087,36.087,0,0,0,1.119-8.7q.131-3.263.94-3.263a2.791,2.791,0,0,1,1.965,1.028,3.2,3.2,0,0,1,1,2.247,28.6,28.6,0,0,1-.737,4.738,64.383,64.383,0,0,1-1.723,6.549A117.257,117.257,0,0,1,496.407,131.224Z" transform="translate(-372.258 -117.946)" fill="#ff0074"/>
        <path id="Path_1617" data-name="Path 1617" d="M574.674,130.154a5.094,5.094,0,0,1,.589,7,1.993,1.993,0,0,1,.538,1.165,27.177,27.177,0,0,1-.57,4.291q-.569,3.038-.669,3.986c-.074.626-.142,1.125-.2,1.5s-.134.737-.222,1.1c-.12.743-.39,1.116-.806,1.116-.535,0-.977-.47-1.318-1.409a12.182,12.182,0,0,1-.6-3.642q-3.981,5.051-7.377,5.051a6.092,6.092,0,0,1-4.043-1.765,4.978,4.978,0,0,1-1.99-3.645,15.654,15.654,0,0,1,1.967-6.637,26.143,26.143,0,0,1,5.1-7.042q3.132-3.084,5.9-3.084A4.81,4.81,0,0,1,574.674,130.154Zm-1.654,5.834q0-4.154-1.654-4.157-1.743,0-4.066,2.48a24.582,24.582,0,0,0-3.935,5.612,11.868,11.868,0,0,0-1.609,4.96,1.464,1.464,0,0,0,.626,1.23,2.383,2.383,0,0,0,1.475.47q2.1,0,4.738-2.847a15.566,15.566,0,0,0,3.664-6.908.931.931,0,0,1,.76-.8Z" transform="translate(-424.751 -118.396)" fill="#ff0074"/>
        <path id="Path_1618" data-name="Path 1618" d="M638.048,131.239q2.705-3.553,4.425-3.553a4.331,4.331,0,0,1,3.263,1.834,5.97,5.97,0,0,1,1.543,3.887,26.876,26.876,0,0,1-1.475,7.87q-2.682,8.579-4.84,8.582-.982,0-.982-1.341a15.8,15.8,0,0,1,.96-3.821q.96-2.881,1.8-5.678a16.372,16.372,0,0,0,.829-4.2,3.952,3.952,0,0,0-.427-2.079c-.285-.447-.569-.672-.854-.672a1.685,1.685,0,0,0-.871.285,4.479,4.479,0,0,0-1.005.894q-.569.624-1.051,1.227c-.33.4-.737.977-1.23,1.723s-.9,1.378-1.23,1.9-.8,1.276-1.424,2.258-1.1,1.728-1.424,2.235-.757,1.193-1.3,2.056-.96,1.535-1.273,2.013-.663,1-1.051,1.563q-1.119,1.657-1.765,1.654c-.433,0-.934-.336-1.5-1.005a2.955,2.955,0,0,1-.854-1.765,6.232,6.232,0,0,1,.313-1.207q.854-2.591,1.879-6.415a36.234,36.234,0,0,0,1.116-8.7c.091-2.175.4-3.263.94-3.263a2.8,2.8,0,0,1,1.968,1.028,3.209,3.209,0,0,1,.982,2.258,28.6,28.6,0,0,1-.737,4.738,64.42,64.42,0,0,1-1.708,6.549A113.986,113.986,0,0,1,638.048,131.239Z" transform="translate(-473.665 -117.96)" fill="#ff0074"/>
        <path id="Path_1619" data-name="Path 1619" d="M710.713,150.267a7.242,7.242,0,0,1-4.895-2.033,6.268,6.268,0,0,1-2.278-4.84,14.556,14.556,0,0,1,1.876-6.458,20.806,20.806,0,0,1,4.84-6.264,8.977,8.977,0,0,1,5.792-2.591,4.109,4.109,0,0,1,3.218,1.654,4.841,4.841,0,0,1,1.387,2.9.854.854,0,0,1-.225.6.826.826,0,0,1-.649.248,3.375,3.375,0,0,1-1.495-.806,3.358,3.358,0,0,0-1.925-.806q-2.415,0-5.632,4.248t-3.218,7.42a2.83,2.83,0,0,0,.871,2.19,4.071,4.071,0,0,0,2.816.806,12.892,12.892,0,0,0,3.579-.464,13.89,13.89,0,0,0,2.526-.94,3.349,3.349,0,0,1,1.387-.467.749.749,0,0,1,.854.854q0,1.3-3.106,3.018A12,12,0,0,1,710.713,150.267Z" transform="translate(-528.978 -118.36)" fill="#ff0074"/>
        <path id="Path_1620" data-name="Path 1620" d="M781.866,135.519a4.433,4.433,0,0,1-2.563,3.889,11.319,11.319,0,0,1-5.809,1.5,22.525,22.525,0,0,1-5.866-.715A11.788,11.788,0,0,0,767,143.7a3.022,3.022,0,0,0,.962,2.392,4.791,4.791,0,0,0,3.175.854,14.384,14.384,0,0,0,4.556-.783,23.878,23.878,0,0,1,2.563-.783q1.162,0,1.162.894,0,1.207-2.728,2.614a11.54,11.54,0,0,1-5.322,1.415,7.915,7.915,0,0,1-5.678-2.079,6.93,6.93,0,0,1-2.19-5.253,15,15,0,0,1,1.708-6.637,18.634,18.634,0,0,1,4.382-5.834,8.114,8.114,0,0,1,5.319-2.369,6.307,6.307,0,0,1,4.806,2.5A7.586,7.586,0,0,1,781.866,135.519Zm-6.74-3.867a5.134,5.134,0,0,0-3.442,1.723,15.04,15.04,0,0,0-3.041,4.271,18.666,18.666,0,0,0,4.069.413,9.906,9.906,0,0,0,3.986-.737q1.708-.735,1.708-1.945a3.767,3.767,0,0,0-1.1-2.457A3.059,3.059,0,0,0,775.126,131.652Z" transform="translate(-571.866 -118.396)" fill="#ff0074"/>
      </g>
    </g>
  </g>
</svg>
