<svg xmlns="http://www.w3.org/2000/svg" width="32" height="32" viewBox="0 0 32 32">
  <g id="Group_9" data-name="Group 9" transform="translate(-1602 -1992)">
    <rect id="Rectangle_533" data-name="Rectangle 533" width="32" height="32" transform="translate(1602 1992)" fill="#ffd2d2" opacity="0"/>
    <path id="Icon_simple-launchpad" data-name="Icon simple-launchpad" d="M24.958,20.232l-4.933-2.769L14.7,20.458V26l10.257-5.768ZM12.956,26V20.454L7.63,17.462,2.7,20.232Zm.867-7.015,5.33-3V10.006l-5.326-2.99L8.5,10.006v5.988l5.322,2.991h0ZM1.83,7.239V18.767l4.933-2.772V10.009L1.828,7.237v0ZM23.662,8.453,20.9,10.009v5.982l4.931,2.772V7.234ZM2.7,5.768,7.635,8.54l5.322-2.992V0ZM20.025,8.54,24.96,5.768,14.7,0V5.548Z" transform="translate(1604.672 1995.5)" fill="#fff" stroke="#fff" stroke-width="0.25"/>
  </g>
</svg>
