<svg xmlns="http://www.w3.org/2000/svg" width="32" height="32" viewBox="0 0 32 32">
  <g id="Group_7" data-name="Group 7" transform="translate(-1469 -1991)">
    <rect id="Rectangle_533" data-name="Rectangle 533" width="32" height="32" transform="translate(1469 1991)" fill="#ffd2d2" opacity="0"/>
    <path id="account-arrow-right" d="M5.6,24V21.647h4.8V19.294H5.6V16.941L2,20.471,5.6,24M16.4,4a4.754,4.754,0,0,0-4.8,4.706,4.8,4.8,0,0,0,9.6,0A4.754,4.754,0,0,0,16.4,4m0,11.765a18.41,18.41,0,0,0-3.888.4,6.979,6.979,0,0,1,1.08,6.659H26V20.471C26,17.871,21.7,15.765,16.4,15.765Z" transform="translate(1471 1993)" fill="#fff"/>
  </g>
</svg>
