<svg xmlns="http://www.w3.org/2000/svg" width="32" height="32" viewBox="0 0 32 32">
  <g id="Group_545" data-name="Group 545" transform="translate(271 -374)">
    <rect id="Rectangle_556" data-name="Rectangle 556" width="32" height="32" transform="translate(-271 374)" fill="#ffd2d2" opacity="0"/>
    <g id="Icon_ionic-ios-document" data-name="Icon ionic-ios-document" transform="translate(-272.313 372.063)">
      <path id="Path_9490" data-name="Path 9490" d="M22.078,11.629h7.07a.385.385,0,0,0,.388-.388h0a2.3,2.3,0,0,0-.831-1.779L22.777,4.519a2.5,2.5,0,0,0-1.6-.575h0a.574.574,0,0,0-.575.575v5.633A1.476,1.476,0,0,0,22.078,11.629Z" transform="translate(-1.224 0.001)" fill="#fff"/>
      <path id="Path_9491" data-name="Path 9491" d="M18.572,9.537v-5.6H9.523a2.232,2.232,0,0,0-2.211,2.24V29.7a2.232,2.232,0,0,0,2.211,2.24H26.1a2.232,2.232,0,0,0,2.211-2.24V12.688H21.681A3.134,3.134,0,0,1,18.572,9.537Z" transform="translate(0 0)" fill="#fff"/>
    </g>
  </g>
</svg>
