<svg id="recent_transactionsicon" data-name="recent transactionsicon" xmlns="http://www.w3.org/2000/svg" width="32" height="28" viewBox="0 0 32 28">
  <path id="recent_transactionsicon-2" data-name="recent transactionsicon" d="M19.286,3A13.86,13.86,0,0,0,5.571,17H1l5.928,6.051.107.218L13.19,17H8.619A10.772,10.772,0,0,1,19.286,6.111,10.772,10.772,0,0,1,29.952,17,10.772,10.772,0,0,1,19.286,27.889a10.475,10.475,0,0,1-7.528-3.2L9.594,26.893A13.507,13.507,0,0,0,19.286,31,13.86,13.86,0,0,0,33,17,13.86,13.86,0,0,0,19.286,3Zm-1.524,7.778v7.778l6.522,3.951,1.1-1.882-5.333-3.236V10.778Z" transform="translate(-1 -3)" fill="#fff"/>
</svg>
