<svg xmlns="http://www.w3.org/2000/svg" width="32" height="32" viewBox="0 0 32 32">
  <g id="Group_6" data-name="Group 6" transform="translate(-1469 -1991)">
    <rect id="Rectangle_533" data-name="Rectangle 533" width="32" height="32" transform="translate(1469 1991)" fill="#ffd2d2" opacity="0"/>
    <path id="account-arrow-right" d="M22.4,24V21.647H17.6V19.294h4.8V16.941L26,20.471,22.4,24M11.6,4a4.754,4.754,0,0,1,4.8,4.706,4.8,4.8,0,0,1-9.6,0A4.754,4.754,0,0,1,11.6,4m0,11.765a18.41,18.41,0,0,1,3.888.4,6.979,6.979,0,0,0-1.08,6.659H2V20.471C2,17.871,6.3,15.765,11.6,15.765Z" transform="translate(1471 1993)" fill="#fff"/>
  </g>
</svg>
