<svg xmlns="http://www.w3.org/2000/svg" width="32" height="32" viewBox="0 0 32 32">
  <g id="Group_505" data-name="Group 505" transform="translate(-1425 -1992)">
    <rect id="Rectangle_532" data-name="Rectangle 532" width="32" height="32" transform="translate(1425 1992)" fill="#fff" opacity="0"/>
    <g id="Group_496" data-name="Group 496" transform="translate(-67.013 12.917)">
      <path id="Path_9205" data-name="Path 9205" d="M15,3.916,8.4,10.3a8.808,8.808,0,0,0,0,12.757,9.564,9.564,0,0,0,13.2,0,8.808,8.808,0,0,0,0-12.757ZM15,.272l8.485,8.2a11.325,11.325,0,0,1,0,16.4,12.3,12.3,0,0,1-16.97,0,11.325,11.325,0,0,1,0-16.4L15,.272Z" transform="translate(1493.013 1980.811)" fill="#fff"/>
      <path id="Path_9206" data-name="Path 9206" d="M9.211-8.715q0,.3-1.411.706.128,1.668.128,2.838,0,2.021-.513,2.021a.487.487,0,0,1-.433-.337,4.105,4.105,0,0,1-.257-1.171Q6.613-6.2,6.485-7.672q-.722.192-1.315.345t-1.8.489Q1.963-3.15,1.706-3.15a.815.815,0,0,1-.553-.313.957.957,0,0,1-.3-.666A20.356,20.356,0,0,1,1.77-6.405H1.658a.861.861,0,0,1-.569-.208A.653.653,0,0,1,.84-7.135q0-.313,1.588-.826Q2.684-8.538,2.845-9q.369-.914,1.026-2.5T4.7-13.534a1.693,1.693,0,0,1,.617-.754A1.489,1.489,0,0,1,6.18-14.6q.5,0,.89,1.588A29.084,29.084,0,0,1,7.7-9.083a7.494,7.494,0,0,1,.786-.048Q9.211-9.132,9.211-8.715Zm-5.244.337q1.139-.3,2.405-.513-.289-2.742-.561-4.121Q5.09-11.361,3.967-8.378Z" transform="translate(1503.163 2004.789)" fill="#fff"/>
    </g>
  </g>
</svg>
