<svg xmlns="http://www.w3.org/2000/svg" width="32" height="32" viewBox="0 0 32 32">
  <g id="Group_3" data-name="Group 3" transform="translate(-1423 -1991)">
    <rect id="Rectangle_531" data-name="Rectangle 531" width="32" height="32" transform="translate(1423 1991)" fill="#fff" opacity="0"/>
    <path id="trade_icon" data-name="trade icon" d="M22.616,4.9l3.419,3.444a.61.61,0,0,1-.012.864L22.6,12.647a.606.606,0,0,1-1.042-.432V10.006H4.4a1.234,1.234,0,0,1,0-2.469H21.562V5.328A.613.613,0,0,1,22.616,4.9ZM5.8,22.521,2.382,19.078a.61.61,0,0,1,.012-.864L5.813,14.77a.606.606,0,0,1,1.042.432v2.209H24.013a1.234,1.234,0,0,1,0,2.469H6.855v2.209a.613.613,0,0,1-1.054.432Z" transform="translate(1424.791 1993.292)" fill="#fff"/>
  </g>
</svg>
